<svg xmlns="http://www.w3.org/2000/svg" viewBox="0 0 800 500" width="800" height="500">
  <rect width="800" height="500" fill="#f4f5f7"/>
  <rect x="20" y="20" width="760" height="444" rx="8" fill="#fff" stroke="#cbd5e1"/>
  <rect x="20" y="20" width="760" height="40" rx="8" fill="#fff" stroke="#cbd5e1"/>
  <rect x="20" y="40" width="760" height="20" fill="#fff"/>
  <circle cx="40" cy="40" r="5" fill="#f87171"/><circle cx="58" cy="40" r="5" fill="#fbbf24"/><circle cx="76" cy="40" r="5" fill="#34d399"/>
  <rect x="98" y="28" width="642" height="24" rx="12" fill="#f1f5f9" stroke="#e2e8f0"/>
  <text x="112" y="44" font-family='ui-monospace, SFMono-Regular, Menlo, Consolas, monospace' font-size="12" fill="#64748b" font-weight="400" >dashboard.convex.dev/gaslab-order</text>
  <text x="36" y="84" font-family='Arial, "Hiragino Kaku Gothic ProN", "Hiragino Sans", Meiryo, sans-serif' font-size="13" fill="#94a3b8" font-weight="700" >Convex ダッシュボード</text>
  <g transform="translate(0,4)"><rect x="36" y="100" width="150" height="360" rx="4" fill="#fafbfc" stroke="#cbd5e1" stroke-width="1" /><text x="52" y="130" font-family='Arial, "Hiragino Kaku Gothic ProN", "Hiragino Sans", Meiryo, sans-serif' font-size="13" fill="#171717" font-weight="700" >Data</text><text x="52" y="162" font-family='Arial, "Hiragino Kaku Gothic ProN", "Hiragino Sans", Meiryo, sans-serif' font-size="13" fill="#64748b" font-weight="400" >Functions</text><text x="52" y="194" font-family='Arial, "Hiragino Kaku Gothic ProN", "Hiragino Sans", Meiryo, sans-serif' font-size="13" fill="#64748b" font-weight="400" >Settings</text><rect x="210" y="100" width="540" height="360" rx="4" fill="#fff" stroke="#cbd5e1" stroke-width="1" /><text x="230" y="130" font-family='Arial, "Hiragino Kaku Gothic ProN", "Hiragino Sans", Meiryo, sans-serif' font-size="12" fill="#94a3b8" font-weight="700" >Tables</text><rect x="230" y="145" width="500" height="38" rx="4" fill="#fff" stroke="#cbd5e1" stroke-width="1" /><text x="246" y="169" font-family='ui-monospace, SFMono-Regular, Menlo, Consolas, monospace' font-size="13" fill="#171717" font-weight="400" >stores</text><rect x="230" y="191" width="500" height="38" rx="4" fill="#fff" stroke="#cbd5e1" stroke-width="1" /><text x="246" y="215" font-family='ui-monospace, SFMono-Regular, Menlo, Consolas, monospace' font-size="13" fill="#171717" font-weight="400" >tables</text><rect x="230" y="237" width="500" height="38" rx="4" fill="#fff" stroke="#cbd5e1" stroke-width="1" /><text x="246" y="261" font-family='ui-monospace, SFMono-Regular, Menlo, Consolas, monospace' font-size="13" fill="#171717" font-weight="400" >menuItems</text><rect x="230" y="283" width="500" height="38" rx="4" fill="#fff" stroke="#cbd5e1" stroke-width="1" /><text x="246" y="307" font-family='ui-monospace, SFMono-Regular, Menlo, Consolas, monospace' font-size="13" fill="#171717" font-weight="400" >tableSessions</text><rect x="230" y="329" width="500" height="38" rx="4" fill="#fff" stroke="#cbd5e1" stroke-width="1" /><text x="246" y="353" font-family='ui-monospace, SFMono-Regular, Menlo, Consolas, monospace' font-size="13" fill="#171717" font-weight="400" >orderLines</text></g>
  <text x="786" y="486" font-family='Arial, "Hiragino Kaku Gothic ProN", "Hiragino Sans", Meiryo, sans-serif' font-size="11" fill="#cbd5e1" font-weight="400" text-anchor="end">仮画像 / MOCKUP</text>
</svg>