<svg xmlns="http://www.w3.org/2000/svg" viewBox="0 0 800 500" width="800" height="500">
  <rect width="800" height="500" fill="#f4f5f7"/>
  <rect x="20" y="20" width="760" height="444" rx="8" fill="#fff" stroke="#cbd5e1"/>
  <rect x="20" y="20" width="760" height="40" rx="8" fill="#fff" stroke="#cbd5e1"/>
  <rect x="20" y="40" width="760" height="20" fill="#fff"/>
  <circle cx="40" cy="40" r="5" fill="#f87171"/><circle cx="58" cy="40" r="5" fill="#fbbf24"/><circle cx="76" cy="40" r="5" fill="#34d399"/>
  <rect x="98" y="28" width="642" height="24" rx="12" fill="#f1f5f9" stroke="#e2e8f0"/>
  <text x="112" y="44" font-family='ui-monospace, SFMono-Regular, Menlo, Consolas, monospace' font-size="12" fill="#64748b" font-weight="400" >dashboard.convex.dev › Settings › URL &amp; Deploy Key</text>
  <text x="36" y="84" font-family='Arial, "Hiragino Kaku Gothic ProN", "Hiragino Sans", Meiryo, sans-serif' font-size="13" fill="#94a3b8" font-weight="700" >Convex 本番デプロイキー</text>
  <g transform="translate(0,4)"><text x="36" y="120" font-family='Arial, "Hiragino Kaku Gothic ProN", "Hiragino Sans", Meiryo, sans-serif' font-size="13" fill="#475569" font-weight="700" >URL &amp; Deploy Key</text><rect x="36" y="145" width="714" height="90" rx="4" fill="#fff" stroke="#cbd5e1" stroke-width="1" /><text x="52" y="175" font-family='Arial, "Hiragino Kaku Gothic ProN", "Hiragino Sans", Meiryo, sans-serif' font-size="12" fill="#64748b" font-weight="400" >Production Deploy Key</text><rect x="52" y="192" width="480" height="26" rx="13" fill="#f1f5f9" stroke="#e2e8f0" stroke-width="1" /><text x="64" y="209" font-family='ui-monospace, SFMono-Regular, Menlo, Consolas, monospace' font-size="11" fill="#64748b" font-weight="400" >prod:•••••••••••••••••••••••••</text><rect x="550" y="188" width="180" height="32" rx="3" fill="#fff" stroke="#fff" stroke-width="1" /><text x="640" y="209" font-family='Arial, "Hiragino Kaku Gothic ProN", "Hiragino Sans", Meiryo, sans-serif' font-size="13" fill="#475569" font-weight="700" text-anchor="middle">Generate Key</text><text x="52" y="270" font-family='Arial, "Hiragino Kaku Gothic ProN", "Hiragino Sans", Meiryo, sans-serif' font-size="12" fill="#dc2626" font-weight="400" >※ Deploy Key も機密。ぼかして保存</text></g>
  <text x="786" y="486" font-family='Arial, "Hiragino Kaku Gothic ProN", "Hiragino Sans", Meiryo, sans-serif' font-size="11" fill="#cbd5e1" font-weight="400" text-anchor="end">仮画像 / MOCKUP</text>
</svg>