<svg xmlns="http://www.w3.org/2000/svg" viewBox="0 0 800 500" width="800" height="500">
  <rect width="800" height="500" fill="#f4f5f7"/>
  <rect x="20" y="20" width="760" height="444" rx="8" fill="#fff" stroke="#cbd5e1"/>
  <rect x="20" y="20" width="760" height="40" rx="8" fill="#fff" stroke="#cbd5e1"/>
  <rect x="20" y="40" width="760" height="20" fill="#fff"/>
  <circle cx="40" cy="40" r="5" fill="#f87171"/><circle cx="58" cy="40" r="5" fill="#fbbf24"/><circle cx="76" cy="40" r="5" fill="#34d399"/>
  <rect x="98" y="28" width="642" height="24" rx="12" fill="#f1f5f9" stroke="#e2e8f0"/>
  <text x="112" y="44" font-family='ui-monospace, SFMono-Regular, Menlo, Consolas, monospace' font-size="12" fill="#64748b" font-weight="400" >gaslab-order.vercel.app</text>
  <text x="36" y="84" font-family='Arial, "Hiragino Kaku Gothic ProN", "Hiragino Sans", Meiryo, sans-serif' font-size="13" fill="#94a3b8" font-weight="700" >公開後の入口画面</text>
  <g transform="translate(0,4)"><text x="36" y="120" font-family='Arial, "Hiragino Kaku Gothic ProN", "Hiragino Sans", Meiryo, sans-serif' font-size="20" fill="#171717" font-weight="700" >卓注文アプリ</text><text x="36" y="144" font-family='Arial, "Hiragino Kaku Gothic ProN", "Hiragino Sans", Meiryo, sans-serif' font-size="12" fill="#64748b" font-weight="400" >トラットリア ガスラボ · 役割ごとの画面を各端末で開いて使います</text><rect x="36" y="165" width="224" height="78" rx="4" fill="#fff" stroke="#cbd5e1" stroke-width="1" /><text x="52" y="199" font-family='Arial, "Hiragino Kaku Gothic ProN", "Hiragino Sans", Meiryo, sans-serif' font-size="14" fill="#171717" font-weight="700" >ホール</text><rect x="276" y="165" width="224" height="78" rx="4" fill="#fff" stroke="#cbd5e1" stroke-width="1" /><text x="292" y="199" font-family='Arial, "Hiragino Kaku Gothic ProN", "Hiragino Sans", Meiryo, sans-serif' font-size="14" fill="#171717" font-weight="700" >キッチン KDS</text><rect x="516" y="165" width="224" height="78" rx="4" fill="#fff" stroke="#cbd5e1" stroke-width="1" /><text x="532" y="199" font-family='Arial, "Hiragino Kaku Gothic ProN", "Hiragino Sans", Meiryo, sans-serif' font-size="14" fill="#171717" font-weight="700" >商品マスタ</text><rect x="36" y="257" width="224" height="78" rx="4" fill="#fff" stroke="#cbd5e1" stroke-width="1" /><text x="52" y="291" font-family='Arial, "Hiragino Kaku Gothic ProN", "Hiragino Sans", Meiryo, sans-serif' font-size="14" fill="#171717" font-weight="700" >卓QR</text><rect x="276" y="257" width="224" height="78" rx="4" fill="#fff" stroke="#cbd5e1" stroke-width="1" /><text x="292" y="291" font-family='Arial, "Hiragino Kaku Gothic ProN", "Hiragino Sans", Meiryo, sans-serif' font-size="14" fill="#171717" font-weight="700" >同時表示</text><rect x="516" y="257" width="224" height="78" rx="4" fill="#171717" stroke="#cbd5e1" stroke-width="1" /><text x="532" y="291" font-family='Arial, "Hiragino Kaku Gothic ProN", "Hiragino Sans", Meiryo, sans-serif' font-size="14" fill="#fff" font-weight="700" >客スマホ</text><rect x="36" y="360" width="230" height="32" rx="3" fill="#fff" stroke="#fff" stroke-width="1" /><text x="151" y="381" font-family='Arial, "Hiragino Kaku Gothic ProN", "Hiragino Sans", Meiryo, sans-serif' font-size="13" fill="#475569" font-weight="700" text-anchor="middle">デモデータ投入</text></g>
  <text x="786" y="486" font-family='Arial, "Hiragino Kaku Gothic ProN", "Hiragino Sans", Meiryo, sans-serif' font-size="11" fill="#cbd5e1" font-weight="400" text-anchor="end">仮画像 / MOCKUP</text>
</svg>