<svg xmlns="http://www.w3.org/2000/svg" viewBox="0 0 800 500" width="800" height="500">
  <rect width="800" height="500" fill="#f4f5f7"/>
  <rect x="20" y="20" width="760" height="444" rx="8" fill="#fff" stroke="#cbd5e1"/>
  <rect x="20" y="20" width="760" height="40" rx="8" fill="#fff" stroke="#cbd5e1"/>
  <rect x="20" y="40" width="760" height="20" fill="#fff"/>
  <circle cx="40" cy="40" r="5" fill="#f87171"/><circle cx="58" cy="40" r="5" fill="#fbbf24"/><circle cx="76" cy="40" r="5" fill="#34d399"/>
  <rect x="98" y="28" width="642" height="24" rx="12" fill="#f1f5f9" stroke="#e2e8f0"/>
  <text x="112" y="44" font-family='ui-monospace, SFMono-Regular, Menlo, Consolas, monospace' font-size="12" fill="#64748b" font-weight="400" >注文 → キッチンに即同期</text>
  <text x="36" y="84" font-family='Arial, "Hiragino Kaku Gothic ProN", "Hiragino Sans", Meiryo, sans-serif' font-size="13" fill="#94a3b8" font-weight="700" >客スマホとキッチンのリアルタイム同期</text>
  <g transform="translate(0,4)"><rect x="60" y="110" width="230" height="350" rx="4" fill="#fff" stroke="#cbd5e1" stroke-width="1" /><rect x="60" y="110" width="230" height="40" rx="4" fill="#fafbfc" stroke="#cbd5e1" stroke-width="1" /><text x="76" y="135" font-family='Arial, "Hiragino Kaku Gothic ProN", "Hiragino Sans", Meiryo, sans-serif' font-size="12" fill="#171717" font-weight="700" >客スマホ（卓A1）</text><rect x="76" y="165" width="198" height="40" rx="4" fill="#fff" stroke="#cbd5e1" stroke-width="1" /><text x="88" y="190" font-family='Arial, "Hiragino Kaku Gothic ProN", "Hiragino Sans", Meiryo, sans-serif' font-size="12" fill="#171717" font-weight="400" >2003 マルゲリータピザ</text><rect x="76" y="215" width="198" height="40" rx="4" fill="#fff" stroke="#cbd5e1" stroke-width="1" /><text x="88" y="240" font-family='Arial, "Hiragino Kaku Gothic ProN", "Hiragino Sans", Meiryo, sans-serif' font-size="12" fill="#171717" font-weight="400" >「注文する」を押す</text><text x="330" y="290" font-family='Arial, "Hiragino Kaku Gothic ProN", "Hiragino Sans", Meiryo, sans-serif' font-size="40" fill="#1d4ed8" font-weight="400" text-anchor="middle">⟶</text><text x="330" y="320" font-family='Arial, "Hiragino Kaku Gothic ProN", "Hiragino Sans", Meiryo, sans-serif' font-size="12" fill="#1d4ed8" font-weight="700" text-anchor="middle">即同期</text><rect x="470" y="110" width="230" height="350" rx="4" fill="#fff" stroke="#cbd5e1" stroke-width="1" /><rect x="470" y="110" width="230" height="40" rx="4" fill="#fafbfc" stroke="#cbd5e1" stroke-width="1" /><text x="486" y="135" font-family='Arial, "Hiragino Kaku Gothic ProN", "Hiragino Sans", Meiryo, sans-serif' font-size="12" fill="#171717" font-weight="700" >キッチン KDS</text><rect x="486" y="165" width="198" height="40" rx="4" fill="#fff" stroke="#cbd5e1" stroke-width="1" /><text x="498" y="190" font-family='Arial, "Hiragino Kaku Gothic ProN", "Hiragino Sans", Meiryo, sans-serif' font-size="12" fill="#171717" font-weight="400" >卓 A1</text><rect x="486" y="215" width="198" height="40" rx="4" fill="#fff" stroke="#cbd5e1" stroke-width="1" /><text x="498" y="240" font-family='Arial, "Hiragino Kaku Gothic ProN", "Hiragino Sans", Meiryo, sans-serif' font-size="12" fill="#171717" font-weight="400" >マルゲリータピザ ×1</text></g>
  <text x="786" y="486" font-family='Arial, "Hiragino Kaku Gothic ProN", "Hiragino Sans", Meiryo, sans-serif' font-size="11" fill="#cbd5e1" font-weight="400" text-anchor="end">仮画像 / MOCKUP</text>
</svg>