<svg xmlns="http://www.w3.org/2000/svg" viewBox="0 0 800 500" width="800" height="500">
  <rect width="800" height="500" fill="#f4f5f7"/>
  <rect x="20" y="20" width="760" height="444" rx="8" fill="#fff" stroke="#cbd5e1"/>
  <rect x="20" y="20" width="760" height="40" rx="8" fill="#fff" stroke="#cbd5e1"/>
  <rect x="20" y="40" width="760" height="20" fill="#fff"/>
  <circle cx="40" cy="40" r="5" fill="#f87171"/><circle cx="58" cy="40" r="5" fill="#fbbf24"/><circle cx="76" cy="40" r="5" fill="#34d399"/>
  <rect x="98" y="28" width="642" height="24" rx="12" fill="#f1f5f9" stroke="#e2e8f0"/>
  <text x="112" y="44" font-family='ui-monospace, SFMono-Regular, Menlo, Consolas, monospace' font-size="12" fill="#64748b" font-weight="400" >checkout.stripe.com (テスト)</text>
  <text x="36" y="84" font-family='Arial, "Hiragino Kaku Gothic ProN", "Hiragino Sans", Meiryo, sans-serif' font-size="13" fill="#94a3b8" font-weight="700" >Stripe テスト決済（カード 4242…）</text>
  <g transform="translate(0,4)"><rect x="250" y="100" width="300" height="360" rx="8" fill="#fff" stroke="#cbd5e1" stroke-width="1" /><text x="400" y="140" font-family='Arial, "Hiragino Kaku Gothic ProN", "Hiragino Sans", Meiryo, sans-serif' font-size="16" fill="#171717" font-weight="700" text-anchor="middle">お支払い</text><text x="270" y="185" font-family='Arial, "Hiragino Kaku Gothic ProN", "Hiragino Sans", Meiryo, sans-serif' font-size="11" fill="#64748b" font-weight="400" >カード番号</text><rect x="270" y="195" width="260" height="34" rx="4" fill="#fff" stroke="#cbd5e1" stroke-width="1" /><text x="286" y="217" font-family='ui-monospace, SFMono-Regular, Menlo, Consolas, monospace' font-size="13" fill="#171717" font-weight="400" >4242 4242 4242 4242</text><text x="270" y="260" font-family='Arial, "Hiragino Kaku Gothic ProN", "Hiragino Sans", Meiryo, sans-serif' font-size="11" fill="#64748b" font-weight="400" >有効期限 / CVC</text><rect x="270" y="270" width="125" height="34" rx="4" fill="#fff" stroke="#cbd5e1" stroke-width="1" /><text x="286" y="292" font-family='ui-monospace, SFMono-Regular, Menlo, Consolas, monospace' font-size="13" fill="#171717" font-weight="400" >12 / 34</text><rect x="405" y="270" width="125" height="34" rx="4" fill="#fff" stroke="#cbd5e1" stroke-width="1" /><text x="421" y="292" font-family='ui-monospace, SFMono-Regular, Menlo, Consolas, monospace' font-size="13" fill="#171717" font-weight="400" >123</text><rect x="270" y="330" width="260" height="32" rx="3" fill="#635bff" stroke="#635bff" stroke-width="1" /><text x="400" y="351" font-family='Arial, "Hiragino Kaku Gothic ProN", "Hiragino Sans", Meiryo, sans-serif' font-size="13" fill="#fff" font-weight="700" text-anchor="middle">支払う（テスト）</text><text x="400" y="400" font-family='Arial, "Hiragino Kaku Gothic ProN", "Hiragino Sans", Meiryo, sans-serif' font-size="11" fill="#94a3b8" font-weight="400" text-anchor="middle">実際のお金は動きません</text></g>
  <text x="786" y="486" font-family='Arial, "Hiragino Kaku Gothic ProN", "Hiragino Sans", Meiryo, sans-serif' font-size="11" fill="#cbd5e1" font-weight="400" text-anchor="end">仮画像 / MOCKUP</text>
</svg>