<svg xmlns="http://www.w3.org/2000/svg" viewBox="0 0 800 500" width="800" height="500">
  <rect width="800" height="500" fill="#f4f5f7"/>
  <rect x="20" y="20" width="760" height="444" rx="8" fill="#fff" stroke="#cbd5e1"/>
  <rect x="20" y="20" width="760" height="40" rx="8" fill="#fff" stroke="#cbd5e1"/>
  <rect x="20" y="40" width="760" height="20" fill="#fff"/>
  <circle cx="40" cy="40" r="5" fill="#f87171"/><circle cx="58" cy="40" r="5" fill="#fbbf24"/><circle cx="76" cy="40" r="5" fill="#34d399"/>
  <rect x="98" y="28" width="642" height="24" rx="12" fill="#f1f5f9" stroke="#e2e8f0"/>
  <text x="112" y="44" font-family='ui-monospace, SFMono-Regular, Menlo, Consolas, monospace' font-size="12" fill="#64748b" font-weight="400" >dashboard.stripe.com › Webhooks › Add endpoint</text>
  <text x="36" y="84" font-family='Arial, "Hiragino Kaku Gothic ProN", "Hiragino Sans", Meiryo, sans-serif' font-size="13" fill="#94a3b8" font-weight="700" >付録A — Stripe Webhook 追加</text>
  <g transform="translate(0,4)"><text x="36" y="120" font-family='Arial, "Hiragino Kaku Gothic ProN", "Hiragino Sans", Meiryo, sans-serif' font-size="13" fill="#475569" font-weight="700" >エンドポイントを追加</text><text x="52" y="160" font-family='Arial, "Hiragino Kaku Gothic ProN", "Hiragino Sans", Meiryo, sans-serif' font-size="12" fill="#64748b" font-weight="400" >エンドポイント URL</text><rect x="52" y="170" width="690" height="34" rx="4" fill="#fff" stroke="#cbd5e1" stroke-width="1" /><text x="68" y="192" font-family='ui-monospace, SFMono-Regular, Menlo, Consolas, monospace' font-size="12" fill="#171717" font-weight="400" >https://your-project.convex.site/stripe/webhook</text><text x="52" y="240" font-family='Arial, "Hiragino Kaku Gothic ProN", "Hiragino Sans", Meiryo, sans-serif' font-size="12" fill="#64748b" font-weight="400" >受信イベント</text><rect x="52" y="252" width="260" height="26" rx="13" fill="#f1f5f9" stroke="#e2e8f0" stroke-width="1" /><text x="64" y="269" font-family='ui-monospace, SFMono-Regular, Menlo, Consolas, monospace' font-size="11" fill="#64748b" font-weight="400" >checkout.session.completed</text><rect x="330" y="252" width="240" height="26" rx="13" fill="#f1f5f9" stroke="#e2e8f0" stroke-width="1" /><text x="342" y="269" font-family='ui-monospace, SFMono-Regular, Menlo, Consolas, monospace' font-size="11" fill="#64748b" font-weight="400" >checkout.session.expired</text><rect x="52" y="300" width="180" height="32" rx="3" fill="#171717" stroke="#171717" stroke-width="1" /><text x="142" y="321" font-family='Arial, "Hiragino Kaku Gothic ProN", "Hiragino Sans", Meiryo, sans-serif' font-size="13" fill="#fff" font-weight="700" text-anchor="middle">エンドポイントを追加</text></g>
  <text x="786" y="486" font-family='Arial, "Hiragino Kaku Gothic ProN", "Hiragino Sans", Meiryo, sans-serif' font-size="11" fill="#cbd5e1" font-weight="400" text-anchor="end">仮画像 / MOCKUP</text>
</svg>