<svg xmlns="http://www.w3.org/2000/svg" viewBox="0 0 800 500" width="800" height="500">
  <rect width="800" height="500" fill="#f4f5f7"/>
  <rect x="20" y="20" width="760" height="444" rx="8" fill="#fff" stroke="#cbd5e1"/>
  <rect x="20" y="20" width="760" height="40" rx="8" fill="#fff" stroke="#cbd5e1"/>
  <rect x="20" y="40" width="760" height="20" fill="#fff"/>
  <circle cx="40" cy="40" r="5" fill="#f87171"/><circle cx="58" cy="40" r="5" fill="#fbbf24"/><circle cx="76" cy="40" r="5" fill="#34d399"/>
  <rect x="98" y="28" width="642" height="24" rx="12" fill="#f1f5f9" stroke="#e2e8f0"/>
  <text x="112" y="44" font-family='ui-monospace, SFMono-Regular, Menlo, Consolas, monospace' font-size="12" fill="#64748b" font-weight="400" >resend.com › API Keys</text>
  <text x="36" y="84" font-family='Arial, "Hiragino Kaku Gothic ProN", "Hiragino Sans", Meiryo, sans-serif' font-size="13" fill="#94a3b8" font-weight="700" >付録B — Resend API キー</text>
  <g transform="translate(0,4)"><text x="36" y="120" font-family='Arial, "Hiragino Kaku Gothic ProN", "Hiragino Sans", Meiryo, sans-serif' font-size="13" fill="#475569" font-weight="700" >API Keys</text><rect x="36" y="140" width="714" height="50" rx="4" fill="#fff" stroke="#cbd5e1" stroke-width="1" /><text x="52" y="170" font-family='Arial, "Hiragino Kaku Gothic ProN", "Hiragino Sans", Meiryo, sans-serif' font-size="12" fill="#64748b" font-weight="400" >Production</text><rect x="360" y="152" width="360" height="26" rx="13" fill="#f1f5f9" stroke="#e2e8f0" stroke-width="1" /><text x="372" y="169" font-family='ui-monospace, SFMono-Regular, Menlo, Consolas, monospace' font-size="11" fill="#64748b" font-weight="400" >re_••••••••••••••••</text><rect x="36" y="210" width="160" height="32" rx="3" fill="#171717" stroke="#171717" stroke-width="1" /><text x="116" y="231" font-family='Arial, "Hiragino Kaku Gothic ProN", "Hiragino Sans", Meiryo, sans-serif' font-size="13" fill="#fff" font-weight="700" text-anchor="middle">+ Create API Key</text></g>
  <text x="786" y="486" font-family='Arial, "Hiragino Kaku Gothic ProN", "Hiragino Sans", Meiryo, sans-serif' font-size="11" fill="#cbd5e1" font-weight="400" text-anchor="end">仮画像 / MOCKUP</text>
</svg>