<svg xmlns="http://www.w3.org/2000/svg" viewBox="0 0 800 500" width="800" height="500">
  <rect width="800" height="500" fill="#f4f5f7"/>
  <rect x="20" y="20" width="760" height="444" rx="8" fill="#fff" stroke="#cbd5e1"/>
  <rect x="20" y="20" width="760" height="40" rx="8" fill="#fff" stroke="#cbd5e1"/>
  <rect x="20" y="40" width="760" height="20" fill="#fff"/>
  <circle cx="40" cy="40" r="5" fill="#f87171"/><circle cx="58" cy="40" r="5" fill="#fbbf24"/><circle cx="76" cy="40" r="5" fill="#34d399"/>
  <rect x="98" y="28" width="642" height="24" rx="12" fill="#f1f5f9" stroke="#e2e8f0"/>
  <text x="112" y="44" font-family='ui-monospace, SFMono-Regular, Menlo, Consolas, monospace' font-size="12" fill="#64748b" font-weight="400" >sorte-order.vercel.app/qr</text>
  <text x="36" y="84" font-family='Arial, "Hiragino Kaku Gothic ProN", "Hiragino Sans", Meiryo, sans-serif' font-size="13" fill="#94a3b8" font-weight="700" >付録D — 卓QRの印刷</text>
  <g transform="translate(0,4)"><text x="36" y="116" font-family='Arial, "Hiragino Kaku Gothic ProN", "Hiragino Sans", Meiryo, sans-serif' font-size="14" fill="#171717" font-weight="700" >卓QRコード</text><rect x="640" y="100" width="110" height="32" rx="3" fill="#171717" stroke="#171717" stroke-width="1" /><text x="695" y="121" font-family='Arial, "Hiragino Kaku Gothic ProN", "Hiragino Sans", Meiryo, sans-serif' font-size="13" fill="#fff" font-weight="700" text-anchor="middle">印刷</text><rect x="36" y="150" width="170" height="200" rx="4" fill="#fff" stroke="#cbd5e1" stroke-width="1" /><rect x="71" y="180" width="100" height="100" rx="4" fill="#0f172a" stroke="#cbd5e1" stroke-width="1" /><text x="52" y="174" font-family='Arial, "Hiragino Kaku Gothic ProN", "Hiragino Sans", Meiryo, sans-serif' font-size="13" fill="#171717" font-weight="700" >卓 A1</text><text x="121" y="310" font-family='ui-monospace, SFMono-Regular, Menlo, Consolas, monospace' font-size="9" fill="#94a3b8" font-weight="400" text-anchor="middle">/t/sorte/…</text><rect x="221" y="150" width="170" height="200" rx="4" fill="#fff" stroke="#cbd5e1" stroke-width="1" /><rect x="256" y="180" width="100" height="100" rx="4" fill="#0f172a" stroke="#cbd5e1" stroke-width="1" /><text x="237" y="174" font-family='Arial, "Hiragino Kaku Gothic ProN", "Hiragino Sans", Meiryo, sans-serif' font-size="13" fill="#171717" font-weight="700" >卓 A2</text><text x="306" y="310" font-family='ui-monospace, SFMono-Regular, Menlo, Consolas, monospace' font-size="9" fill="#94a3b8" font-weight="400" text-anchor="middle">/t/sorte/…</text><rect x="406" y="150" width="170" height="200" rx="4" fill="#fff" stroke="#cbd5e1" stroke-width="1" /><rect x="441" y="180" width="100" height="100" rx="4" fill="#0f172a" stroke="#cbd5e1" stroke-width="1" /><text x="422" y="174" font-family='Arial, "Hiragino Kaku Gothic ProN", "Hiragino Sans", Meiryo, sans-serif' font-size="13" fill="#171717" font-weight="700" >卓 A3</text><text x="491" y="310" font-family='ui-monospace, SFMono-Regular, Menlo, Consolas, monospace' font-size="9" fill="#94a3b8" font-weight="400" text-anchor="middle">/t/sorte/…</text><rect x="591" y="150" width="170" height="200" rx="4" fill="#fff" stroke="#cbd5e1" stroke-width="1" /><rect x="626" y="180" width="100" height="100" rx="4" fill="#0f172a" stroke="#cbd5e1" stroke-width="1" /><text x="607" y="174" font-family='Arial, "Hiragino Kaku Gothic ProN", "Hiragino Sans", Meiryo, sans-serif' font-size="13" fill="#171717" font-weight="700" >卓 A4</text><text x="676" y="310" font-family='ui-monospace, SFMono-Regular, Menlo, Consolas, monospace' font-size="9" fill="#94a3b8" font-weight="400" text-anchor="middle">/t/sorte/…</text><text x="36" y="400" font-family='Arial, "Hiragino Kaku Gothic ProN", "Hiragino Sans", Meiryo, sans-serif' font-size="12" fill="#64748b" font-weight="400" >必ず公開ドメインで開いてから印刷（スマホで読めるQRになる）</text></g>
  <text x="786" y="486" font-family='Arial, "Hiragino Kaku Gothic ProN", "Hiragino Sans", Meiryo, sans-serif' font-size="11" fill="#cbd5e1" font-weight="400" text-anchor="end">仮画像 / MOCKUP</text>
</svg>